# xmcd
# 
# Track frame offsets:
#     182
#     12697
#     25285
#     38570
#     51160
#     63760
#     77017
#     93795
#     105660
#     117825
#     128752
#     139700
#     149447
#     161552
#     173947
#     185540
#     199562
# 
# Disc length: 2812
# 
# Revision: 8
# Processed by: cddbd v1.5.2PL0 Copyright (c) Steve Scherf et al.
# Submitted via: fre:ac v1.0.27
# 
DISCID=e00afa11
DTITLE=John Lee Hooker - 51 Great Blues Hits disk 3
DYEAR=1990
DGENRE=Blues
TTITLE0=Hobo Blues
TTITLE1=Baby Lee
TTITLE2=I Love You Baby
TTITLE3=Trouble Blues
TTITLE4=I'm So Excited
TTITLE5=She Left Me On Bended Knee
TTITLE6=Process
TTITLE7=Good Rockin' Mama
TTITLE8=I'm In The Mood
TTITLE9=No Shoes
TTITLE10=Send Me The Pillow You Dream On
TTITLE11=Onions
TTITLE12=Frisco
TTITLE13=Drug Store Woman
TTITLE14=Let Your Daddy Ride
TTITLE15=Don't You Remember Me
TTITLE16=Boogie Chillen 2
EXTD=YEAR: 1990
EXTT0=
EXTT1=
EXTT2=
EXTT3=
EXTT4=
EXTT5=
EXTT6=
EXTT7=
EXTT8=
EXTT9=
EXTT10=
EXTT11=
EXTT12=
EXTT13=
EXTT14=
EXTT15=
EXTT16=
PLAYORDER=
